<svg xmlns="http://www.w3.org/2000/svg" width="60" height="60" viewBox="0 0 60 60" fill="none">
<path d="M37.2064 27.9414C33.8185 27.9414 31.6494 30.6275 31.6494 34.1693C31.6802 37.8944 34.061 40.1522 37.0525 40.1522C39.9221 40.1522 42.5479 37.9843 42.5479 33.832C42.5491 30.4441 40.625 27.9414 37.2064 27.9414ZM37.1448 37.6187C35.8017 37.6187 35.1 36.1229 35.1296 34.0462C35.1296 32.0617 35.7402 30.4749 37.1448 30.4749C38.5802 30.4749 39.0985 32.0322 39.0985 34.0462C39.0985 36.2743 38.4583 37.6187 37.1448 37.6187Z" fill="black"/>
<path d="M28.26 25.5893C28.26 22.2002 26.3372 19.6963 22.9173 19.6963C19.5282 19.6963 17.3604 22.3836 17.3604 25.9254C17.3604 29.6505 19.7412 31.9107 22.7646 31.9107C25.6355 31.9095 28.26 29.7416 28.26 25.5893ZM22.857 29.3748C21.5139 29.3748 20.811 27.879 20.811 25.8035C20.811 23.8191 21.4524 22.231 22.8262 22.231C24.2616 22.231 24.8107 23.7883 24.8107 25.8035C24.8107 28.0317 24.1693 29.3748 22.857 29.3748Z" fill="black"/>
<path d="M29.9551 0C13.411 0 0 13.411 0 29.9551C0 46.4991 13.411 59.9102 29.9551 59.9102C46.4991 59.9102 59.9102 46.4991 59.9102 29.9551C59.9102 13.411 46.4991 0 29.9551 0ZM51.539 33.1595L48.0429 36.5129L48.4343 41.341C48.4873 42.0021 48.0699 42.6078 47.4372 42.7887L42.7814 44.1294L40.8856 48.5907C40.6307 49.2 39.9758 49.5447 39.332 49.4081L34.5851 48.4356L30.8365 51.5046C30.5792 51.7101 30.269 51.8185 29.9551 51.8185C29.6424 51.8185 29.3297 51.7114 29.0749 51.5046L25.3251 48.4356L20.5782 49.4081C19.9331 49.5484 19.2807 49.1964 19.0246 48.5907L17.1288 44.1294L12.4742 42.7887C11.839 42.6053 11.4217 42.0009 11.4746 41.341L11.8673 36.5129L8.37112 33.1595C7.89348 32.704 7.80607 31.974 8.15938 31.4163L10.752 27.3231L9.21439 22.7288C9.00388 22.101 9.2661 21.4141 9.83853 21.0842L14.0376 18.6651L14.8107 13.8813C14.9129 13.2301 15.4657 12.7438 16.1243 12.7167L20.9647 12.5259L23.8737 8.64934C24.2701 8.12245 24.9841 7.94639 25.5787 8.22954L29.9551 10.3113L34.329 8.22954C34.9248 7.9427 35.6388 8.11753 36.034 8.64934L38.943 12.5259L43.7847 12.7167C44.4457 12.7438 44.996 13.2301 45.1007 13.8813L45.8725 18.6651L50.0729 21.0842C50.6441 21.4141 50.9038 22.101 50.6933 22.7288L49.157 27.3231L51.7508 31.4163C52.1041 31.974 52.0167 32.704 51.539 33.1595Z" fill="black"/>
<path d="M34.397 19.6963L23.0098 40.2129H25.4829L36.9009 19.6963H34.397Z" fill="black"/>
</svg>