<svg width="34" height="51" viewBox="0 0 34 51" fill="none" xmlns="http://www.w3.org/2000/svg">
<g id="Group 43">
<path id="Vector" d="M22.913 30.6464V36.0938H18.8478C17.8623 36.0938 17 37.0842 17 38.2396V40.8807C17 42.0362 17.8007 43.0266 18.8478 43.0266H22.913V48.4739C22.913 49.7945 23.6522 50.95 24.5145 50.95H26.4855C27.3478 50.95 28.087 49.877 28.087 48.4739V43.0266H32.1522C33.1377 43.0266 34 42.0362 34 40.8807V38.2396C34 37.0842 33.1993 36.0938 32.1522 36.0938H28.087V30.6464C28.087 29.3259 27.3478 28.1704 26.4855 28.1704H24.5145C23.6522 28.1704 22.913 29.3259 22.913 30.6464Z" fill="#413833"/>
<g id="Group">
<path id="Vector_2" d="M21.8087 0.0307617H5.3916C2.42319 0.0307617 0 3.11542 0 6.93067V9.36592H27.2003V6.93067C27.2003 3.11542 24.7771 0.0307617 21.8087 0.0307617Z" fill="#413833"/>
<path id="Vector_3" d="M27.2003 11.6387H0.0605469V20.4056H27.2003V11.6387Z" fill="#413833"/>
<path id="Vector_4" d="M21.3241 26.3318C21.3241 24.4647 22.2933 22.9224 23.5655 22.9224H26.3522C26.6551 22.9224 26.958 23.0035 27.2003 23.1659V22.5977H0.0605469V31.4458H21.3241V26.3318Z" fill="#413833"/>
<path id="Vector_5" d="M13.1458 40.5373V36.8032C13.1458 35.1797 14.2968 33.7997 15.6901 33.7997H21.324V33.5562H0.0605469V36.235C0.0605469 40.0502 2.48374 43.1349 5.45215 43.1349H14.5391C13.691 42.729 13.1458 41.7549 13.1458 40.5373Z" fill="#413833"/>
</g>
</g>
</svg>
