<svg xmlns="http://www.w3.org/2000/svg" width="28" height="35" viewBox="0 0 28 35" fill="none">
<path d="M13.5859 26.8798C13.5425 26.9232 13.499 26.9667 13.4122 27.0101C13.3688 27.0535 13.2819 27.0969 13.2385 27.1403C13.1082 27.2272 12.978 27.3141 12.8911 27.4009L10.3291 32.6987L9.80807 29.659L10.5897 28.4431C10.5028 28.4431 10.416 28.4865 10.3291 28.4865C10.0686 28.53 9.85149 28.5734 9.59095 28.5734C9.46068 28.5734 9.33041 28.5734 9.20014 28.5734C8.67906 28.5734 8.15799 28.5299 7.68033 28.3996L8.46195 29.659L7.98429 32.7421L5.11836 27.1403C4.98809 27.0535 4.85782 26.9232 4.72756 26.793L4.68413 26.8364C1.90505 29.2247 1.16686 32.9158 0.993164 34.8699H17.19C16.5821 29.2681 14.2372 27.314 13.5859 26.8798Z" fill="#D9D9D9"/>
<path d="M9.15685 15.8936C5.76984 15.8936 3.03418 18.6293 3.03418 22.0164C3.03418 25.4035 5.76984 28.1392 9.15685 28.1392C12.5439 28.1392 15.2795 25.4035 15.2795 22.0164C15.2795 18.6293 12.5439 15.8936 9.15685 15.8936Z" fill="#D9D9D9"/>
<path d="M26.7432 30.9184C26.7866 30.875 26.7866 30.875 26.7866 30.8316C26.7866 30.7881 26.7432 30.7447 26.6997 30.7447C26.6997 30.7447 25.6576 30.2236 25.397 29.4854C25.7444 29.8328 26.1787 30.0065 26.7432 30.0934C26.7866 30.0934 26.83 30.0934 26.8734 30.05C26.9169 30.0065 26.9169 29.9631 26.8734 29.9197C26.3524 28.6169 26.0918 27.0971 25.8313 25.5772C25.6576 24.6653 25.5273 23.7968 25.3102 22.9718C25.2234 22.6244 25.1365 22.277 25.0062 21.9731C24.876 21.5822 24.7023 21.2348 24.4852 20.9309C24.268 20.5835 23.6167 19.715 22.2272 19.4544C21.7495 19.3242 21.2718 19.2373 20.7942 19.2373C19.7955 19.2373 18.8836 19.5847 18.1454 20.1492C17.4506 20.5834 16.9295 21.2348 16.5387 22.1902C16.2782 22.7113 16.1045 23.3192 16.0176 23.9271C15.9742 24.1008 15.9742 24.2745 15.9742 24.4048C15.9308 24.6219 15.8874 24.7956 15.8874 25.0128C15.7571 26.0115 15.844 27.3142 16.0611 28.5735C16.8861 29.8763 17.6677 31.9172 17.9717 35.0003H27.2208C27.134 34.1319 26.9603 32.6988 26.2655 31.2658C26.5261 31.0487 26.6997 30.9184 26.7432 30.9184ZM23.8772 30.1802C23.7904 30.267 22.3574 31.2224 22.3574 31.2224L23.0522 32.1778L20.7942 33.9581L18.5362 32.1778L19.231 31.2224C19.231 31.2224 17.798 30.267 17.7112 30.1802C17.5809 30.0065 18.3625 29.2683 18.3625 29.2683L20.7942 33.9581L23.2259 29.2683C23.2259 29.2683 24.0075 30.0065 23.8772 30.1802Z" fill="#D9D9D9"/>
<path d="M19.5353 0H3.12131C2.20942 0 1.51465 0.738218 1.51465 1.6067V10.4218C1.51465 11.3337 2.25284 12.0285 3.12131 12.0285H9.72163L9.50451 14.8077L11.9362 12.0285H19.5353C20.4471 12.0285 21.1419 11.2903 21.1419 10.4218V1.6067C21.1419 0.738218 20.4471 0 19.5353 0ZM12.1099 7.81637H3.90292C3.72923 7.81637 3.59896 7.68609 3.59896 7.51239C3.59896 7.3387 3.72923 7.20842 3.90292 7.20842H12.1099C12.2836 7.20842 12.4139 7.3387 12.4139 7.51239C12.3704 7.68609 12.2402 7.81637 12.1099 7.81637ZM18.58 5.86228H3.90292C3.72923 5.86228 3.59896 5.732 3.59896 5.5583C3.59896 5.38461 3.72923 5.25433 3.90292 5.25433H18.58C18.7536 5.25433 18.8839 5.38461 18.8839 5.5583C18.8405 5.732 18.7102 5.86228 18.58 5.86228ZM18.58 3.90819H3.90292C3.72923 3.90819 3.59896 3.77791 3.59896 3.60421C3.59896 3.43051 3.72923 3.30023 3.90292 3.30023H18.58C18.7536 3.30023 18.8839 3.43051 18.8839 3.60421C18.8405 3.77791 18.7102 3.90819 18.58 3.90819Z" fill="#D9D9D9"/>
<path d="M25.6135 7.81641H21.8791V10.9864C21.8791 11.9417 21.0975 12.7233 20.1422 12.7233H15.2354V14.8511C15.2354 15.4157 15.6696 15.8499 16.2341 15.8499H21.2277L22.7476 17.5869L22.6173 15.8499H25.6135C26.178 15.8499 26.6122 15.4157 26.6122 14.8511V8.81516C26.6122 8.29407 26.178 7.81641 25.6135 7.81641Z" fill="#D9D9D9"/>
</svg>