<svg xmlns="http://www.w3.org/2000/svg" width="29" height="28" viewBox="0 0 29 28" fill="none">
<path d="M6.65625 13.9809C6.65625 18.574 10.3855 22.3033 14.9784 22.3033C19.5714 22.3033 23.3006 18.574 23.3006 13.9809C23.3006 9.38789 19.5714 5.65851 14.9784 5.65851C10.3855 5.61925 6.65625 9.38789 6.65625 13.9809ZM20.7883 13.4706C21.0631 16.6896 18.7077 19.5161 15.4888 19.7909C12.2698 20.0657 9.4434 17.7103 9.16861 14.4913C8.89382 11.2722 11.2492 8.44572 14.4681 8.17092C17.6871 7.89612 20.5135 10.2515 20.7883 13.4706Z" fill="#D9D9D9"/>
<path d="M26.4015 18.5734L27.7754 18.5342C28.0895 18.5342 28.4428 18.2594 28.5213 17.9453L28.9923 15.7469C29.0316 15.4329 28.8353 15.0403 28.5605 14.9225L27.3043 14.3337C27.0295 14.1767 26.794 13.8234 26.7548 13.5093C26.7548 13.5093 26.7548 13.3523 26.7155 12.9597C26.7155 12.8419 26.7155 12.8419 26.7155 12.8419C26.7155 12.6849 26.9118 12.4494 27.1866 12.2923L28.3642 11.5465C28.639 11.3894 28.7961 10.9969 28.7176 10.6828L28.0109 8.56295C27.8932 8.2489 27.5399 8.05262 27.2258 8.05262L25.8519 8.17038C25.5378 8.20964 25.1453 8.01336 24.9883 7.77782C24.8312 7.54228 24.5564 6.7179 24.7135 6.4431L25.3416 5.22613C25.4986 4.95134 25.4201 4.51953 25.1845 4.28399L23.5358 2.79224C23.3003 2.59596 22.8684 2.59594 22.5937 2.75297L21.4552 3.5381C21.1805 3.73439 20.7879 3.77365 20.5131 3.61662C20.2776 3.49885 19.6102 2.91001 19.571 2.59596L19.5317 1.22197C19.5317 0.907919 19.2569 0.5546 18.9429 0.476086L16.7446 0.00500167C16.4305 -0.034255 16.038 0.162043 15.9202 0.436839L15.3314 1.69303C15.1743 1.96783 14.821 2.20338 14.507 2.24264C14.507 2.24264 14.35 2.24263 13.9574 2.28188C13.8396 2.28188 13.8397 2.28188 13.8397 2.28188C13.6826 2.28188 13.4471 2.08562 13.2901 1.81082L12.5442 0.633123C12.3872 0.358326 11.9946 0.20129 11.6806 0.279803L9.56079 0.986418C9.24674 1.10419 9.05046 1.4575 9.05046 1.77155L9.16823 3.14553C9.20749 3.45959 9.01121 3.85216 8.77567 4.00919C8.54014 4.16621 7.71577 4.44101 7.44098 4.28399L6.22406 3.65587C5.94927 3.49884 5.51746 3.57736 5.28192 3.8129L3.7902 5.46169C3.59392 5.69723 3.59392 6.12904 3.75094 6.40383L4.53606 7.54229C4.73234 7.81708 4.7716 8.20966 4.61457 8.48446C4.49681 8.72 3.90797 9.38734 3.59392 9.4266L2.21998 9.46587C1.90593 9.46587 1.55263 9.74067 1.47412 10.0547L1.00305 12.2531C0.963793 12.5671 1.16007 12.9597 1.43486 13.0775L2.69105 13.6663C2.96584 13.8233 3.20137 14.1767 3.24063 14.4907C3.24063 14.4907 3.24063 14.6477 3.27988 15.0403C3.27988 15.1581 3.27988 15.1581 3.27988 15.1581C3.27988 15.3151 3.0836 15.5506 2.80881 15.7077L1.63114 16.4536C1.35635 16.6106 1.19933 17.0032 1.27784 17.3172L1.98444 19.4371C2.10221 19.7511 2.45551 19.9474 2.76955 19.9474L4.1435 19.8296C4.45755 19.7904 4.85011 19.9866 5.00713 20.2222C5.16415 20.4577 5.43895 21.2821 5.28192 21.5569L4.65383 22.7739C4.49681 23.0487 4.57532 23.4805 4.81085 23.716L6.45959 25.2078C6.69513 25.4041 7.12694 25.4041 7.40173 25.247L8.54014 24.4619C8.81493 24.2656 9.20748 24.2264 9.48227 24.3834C9.71781 24.5012 10.3851 25.09 10.4244 25.4041L10.4637 26.7781C10.4637 27.0921 10.7385 27.4454 11.0525 27.5239L13.2508 27.995C13.5649 28.0343 13.9574 27.838 14.0752 27.5632L14.664 26.307C14.821 26.0322 15.1743 25.7966 15.4884 25.7574C15.4884 25.7574 15.6454 25.7574 16.038 25.7181C16.1557 25.7181 16.1557 25.7181 16.1557 25.7181C16.3128 25.7181 16.5483 25.9144 16.7053 26.1892L17.4512 27.3669C17.6082 27.6417 18.0007 27.7987 18.3148 27.7202L20.4346 27.0136C20.7486 26.8958 20.9449 26.5425 20.9449 26.2284L20.8272 24.8545C20.7879 24.5404 20.9842 24.1479 21.2197 23.9908C21.4552 23.8338 22.2796 23.559 22.5544 23.716L23.7713 24.3441C24.0461 24.5012 24.4779 24.4227 24.7135 24.1871L26.2052 22.5383C26.4015 22.3028 26.4015 21.871 26.2444 21.5962L25.4593 20.4577C25.263 20.1829 25.2238 19.7904 25.3808 19.5156C25.4986 19.28 26.0874 18.5734 26.4015 18.5734ZM14.9781 23.4805C9.75706 23.4805 5.4782 19.2015 5.4782 13.9804C5.4782 8.75925 9.75706 4.48027 14.9781 4.48027C20.1991 4.48027 24.4779 8.75925 24.4779 13.9804C24.4779 19.2015 20.1991 23.4805 14.9781 23.4805Z" fill="#D9D9D9"/>
</svg>