<svg xmlns="http://www.w3.org/2000/svg" width="60" height="60" viewBox="0 0 60 60" fill="none">
  <path d="M30 0C13.4311 0 0 13.4312 0 30C0 46.5689 13.4311 60 30 60C46.5689 60 60 46.5689 60 30C59.9988 13.4312 46.5676 0 30 0ZM10.9111 22.6273L19.259 13.2783H20.5943L15.0857 22.6273V24.8305H18.0348V22.6273L23.6001 13.2783H24.6012L21.8185 22.4041V24.8305H24.6012V22.6273L27.3838 13.2783H28.163V22.8504V24.8317H31.9307L31.6126 13.2795H32.8369L35.0635 21.3623V24.8317H38.5131V22.7395L36.0646 13.2795H37.512L42.2981 22.7395V24.8317H45.3039V22.7395L39.6277 13.2795H41.0751L49.0889 22.6285V29.4452H47.512V40.884H12.488V29.4452H10.9111V22.6273ZM53.3473 46.7205H6.65146C6.65146 44.304 8.61176 42.3425 11.0295 42.3425H48.9705C51.387 42.3425 53.3473 44.3028 53.3473 46.7205Z" fill="black"/>
</svg>