<svg xmlns="http://www.w3.org/2000/svg" width="16" height="15" viewBox="0 0 16 15" fill="none">
<path d="M13.6569 2.19681C10.5325 -0.732271 5.4677 -0.732271 2.3433 2.19681C-0.7811 5.12589 -0.7811 9.8741 2.3433 12.8032C5.4677 15.7323 10.5325 15.7323 13.6569 12.8032C16.7813 9.8741 16.7807 5.12589 13.6569 2.19681ZM12.3539 5.64547L7.49261 10.2035C7.3726 10.316 7.20984 10.3792 7.04014 10.3792C6.87044 10.3792 6.70769 10.316 6.58768 10.2035L3.64631 7.4454C3.58689 7.3897 3.53976 7.32357 3.5076 7.25078C3.47544 7.178 3.45889 7.1 3.45889 7.02122C3.45889 6.86212 3.52631 6.70954 3.64631 6.59704C3.76631 6.48454 3.92907 6.42133 4.09878 6.42133C4.26849 6.42133 4.43124 6.48454 4.55125 6.59704L7.04014 8.93034L11.449 4.79651C11.5085 4.7408 11.579 4.69662 11.6567 4.66649C11.7344 4.63636 11.8176 4.62087 11.9017 4.62089C11.9857 4.62092 12.069 4.63647 12.1466 4.66665C12.2243 4.69684 12.2948 4.74106 12.3543 4.79681C12.4137 4.85255 12.4608 4.91872 12.4929 4.99154C12.5251 5.06436 12.5416 5.1424 12.5416 5.2212C12.5415 5.30001 12.525 5.37804 12.4928 5.45083C12.4606 5.52363 12.4134 5.58977 12.3539 5.64547Z" fill="black"/>
</svg>