<svg width="121" height="91" viewBox="0 0 121 91" fill="none" xmlns="http://www.w3.org/2000/svg">
<path opacity="0.18" d="M19.288 19.0541C15.7123 19.8406 11.9957 20.6942 9.12519 23.0431C6.70128 25.0247 2.92439 28.683 1.78001 31.6554C-3.0678 44.2109 2.41317 59.4889 13.0519 67.3024C18.0555 70.9774 24.2915 72.7563 28.7882 77.0822C31.6323 79.8183 33.6243 83.44 36.6505 85.9551C41.0723 89.6271 47.0424 90.4395 52.6924 90.8328C56.6176 91.1087 60.6957 91.2276 64.3374 89.6789C66.9699 88.5601 69.1999 86.641 71.3888 84.7494L85.8896 72.1847C88.2195 70.168 90.3981 66.9563 93.4316 66.9777C120.735 67.1804 122.576 33.8397 80.6716 19.0724C76.9784 17.7706 74.4458 14.152 70.976 12.2969C63.8085 8.46332 55.5599 9.70562 48.3308 12.3579C39.1523 15.7342 28.8132 16.9521 19.288 19.0541Z" fill="#0E538C"/>
<path d="M90.6881 30.5761V70.2929C90.6879 70.7905 90.5932 71.2833 90.4095 71.7429C90.2258 72.2026 89.9566 72.6202 89.6174 72.972C89.2781 73.3237 88.8754 73.6027 88.4323 73.7929C87.9891 73.9832 87.5142 74.081 87.0346 74.0808H29.7878C29.3081 74.0808 28.833 73.9827 28.3899 73.7922C27.9467 73.6016 27.544 73.3224 27.2049 72.9703C26.8657 72.6183 26.5968 72.2004 26.4133 71.7405C26.2299 71.2805 26.1356 70.7876 26.1357 70.2899V30.5761C26.1354 30.0782 26.2295 29.5852 26.4129 29.1252C26.5963 28.6652 26.8653 28.2472 27.2044 27.8951C27.5436 27.5431 27.9464 27.2638 28.3896 27.0733C28.8329 26.8829 29.308 26.785 29.7878 26.7852H87.0346C88.0036 26.7852 88.9328 27.1846 89.618 27.8955C90.3032 28.6064 90.6881 29.5707 90.6881 30.5761Z" fill="#0E538C"/>
<path d="M89.6978 27.9969H27.0273L27.5356 27.5929C27.5591 27.5718 27.5836 27.552 27.6091 27.5335L57.4217 3.82167L58.3633 3.07324L88.6945 27.1997L89.6978 27.9969Z" fill="#0E538C"/>
<path d="M90.6881 30.5761L89.9257 31.1477L84.3742 35.3197L57.4218 55.5759L31.5007 34.8624L26.1357 30.5761L26.2048 29.8398C26.3355 29.1496 26.65 28.5111 27.1126 27.997C27.2425 27.8503 27.384 27.7151 27.5357 27.593C27.5592 27.5719 27.5837 27.5521 27.6092 27.5336C28.2384 27.0465 29.0027 26.7839 29.7878 26.7852H87.0346C87.9423 26.7857 88.8174 27.1366 89.4895 27.7697C90.1615 28.4028 90.5825 29.2728 90.6705 30.2102C90.6823 30.3318 90.6881 30.4539 90.6881 30.5761Z" fill="#0E538C"/>
<path opacity="0.61" d="M27.5356 27.5898C27.3846 27.7128 27.2432 27.8479 27.1125 27.9938H27.0273L27.5356 27.5898Z" fill="url(#paint0_linear_768_1092)"/>
<path opacity="0.61" d="M90.6881 30.576L89.9256 31.1491L84.3742 35.3196L57.4218 55.5758L31.5007 34.8638L26.1357 30.576L26.2048 29.8413C26.3355 29.1506 26.65 28.5117 27.1126 27.9969C27.2433 27.851 27.3847 27.7159 27.5357 27.5929L27.6092 27.535L57.4218 3.82167L58.3634 3.07324L88.6946 27.1997C89.2416 27.4887 89.7094 27.9162 90.0548 28.4427C90.4002 28.9692 90.6119 29.5777 90.6704 30.2117C90.6823 30.3327 90.6881 30.4543 90.6881 30.576Z" fill="url(#paint1_linear_768_1092)"/>
<path d="M84.3745 27.641V35.3204L74.4276 42.7894L72.1462 44.5088L57.4221 55.5751L43.5735 44.5088L41.4302 42.7955L31.501 34.8692V27.641C31.501 27.0439 31.7296 26.4713 32.1365 26.0491C32.5434 25.6268 33.0953 25.3896 33.6707 25.3896H82.2062C82.7814 25.3901 83.3329 25.6274 83.7395 26.0496C84.1461 26.4718 84.3745 27.0442 84.3745 27.641Z" fill="white"/>
<path d="M77.085 34.3744H37.8617C37.6428 34.3744 37.4328 34.2842 37.2779 34.1235C37.1231 33.9629 37.0361 33.745 37.0361 33.5178C37.0361 33.4053 37.0575 33.2939 37.099 33.19C37.1405 33.086 37.2013 32.9916 37.2779 32.912C37.3546 32.8325 37.4456 32.7694 37.5458 32.7263C37.646 32.6833 37.7533 32.6611 37.8617 32.6611H77.085C77.1934 32.6611 77.3007 32.6833 77.4009 32.7263C77.5011 32.7694 77.5921 32.8325 77.6688 32.912C77.7454 32.9916 77.8062 33.086 77.8477 33.19C77.8892 33.2939 77.9106 33.4053 77.9106 33.5178C77.9106 33.745 77.8236 33.9629 77.6688 34.1235C77.5139 34.2842 77.3039 34.3744 77.085 34.3744Z" fill="#FF9800"/>
<path d="M77.085 39.4428H37.8617C37.6428 39.4428 37.4328 39.3525 37.2779 39.1919C37.1231 39.0312 37.0361 38.8133 37.0361 38.5861C37.0361 38.3589 37.1231 38.1411 37.2779 37.9804C37.4328 37.8197 37.6428 37.7295 37.8617 37.7295H77.085C77.3039 37.7295 77.5139 37.8197 77.6688 37.9804C77.8236 38.1411 77.9106 38.3589 77.9106 38.5861C77.9106 38.8133 77.8236 39.0312 77.6688 39.1919C77.5139 39.3525 77.3039 39.4428 77.085 39.4428Z" fill="#FF9800"/>
<path d="M74.4276 42.7959L72.1462 44.5092H43.5735L41.4287 42.7959H74.4276Z" fill="#FF9800"/>
<path opacity="0.05" d="M57.4218 55.5752L33.4971 74.0831H81.8401L57.4218 55.5752Z" fill="#000405"/>
<path d="M36.7847 13.7493C35.5801 11.068 31.0555 11.5086 31.0555 11.5086C33.8467 9.79983 33.3119 5.46018 33.2781 5.2041C34.4989 8.98738 38.7136 8.15207 39.0911 8.06976C36.2926 8.78618 36.7847 13.7493 36.7847 13.7493ZM28.9401 19.2504C28.1747 17.5463 25.2969 17.8267 25.2969 17.8267C27.1185 16.7033 26.7057 13.8118 26.7057 13.8118V13.8285C27.4872 16.2201 30.1608 15.6897 30.3988 15.6379C28.6272 16.0951 28.9401 19.2504 28.9401 19.2504Z" fill="#0E538C"/>
<path opacity="0.22" d="M31.7033 11.2891L31.0584 11.5086C33.8496 9.79983 33.3149 5.46018 33.2811 5.2041C33.3251 5.40988 33.9744 8.27402 33.6204 9.2145C33.1782 10.3897 31.7033 11.2891 31.7033 11.2891ZM27.0905 16.5296C26.7497 17.0189 25.3953 17.7734 25.3027 17.8237C27.1243 16.7003 26.7115 13.8087 26.7115 13.8087V13.8255C26.7835 14.0236 27.4226 16.0509 27.0905 16.5296Z" fill="white"/>
<path opacity="0.22" d="M26.2444 32.6614L56.1643 56.5485L57.4218 55.576L26.1357 30.5762L26.2444 32.6614ZM58.4119 56.3946L90.6881 32.2895V30.6448L57.4218 55.6431L58.4119 56.3946Z" fill="white"/>
<path opacity="0.22" d="M90.6705 30.2785L90.5824 30.5346L89.9257 31.2159C90.387 30.3898 89.084 28.4722 89.084 28.4722L88.564 28.0683L87.0024 26.8489L57.4219 3.89003L58.3635 3.1416L88.6947 27.2665C89.2414 27.5559 89.7091 27.9835 90.0544 28.5099C90.3997 29.0364 90.6116 29.6446 90.6705 30.2785Z" fill="white"/>
<defs>
<linearGradient id="paint0_linear_768_1092" x1="27.0508" y1="28.4465" x2="27.6511" y2="26.8741" gradientUnits="userSpaceOnUse">
<stop offset="0.36" stop-color="#00272E"/>
<stop offset="0.75" stop-color="#3F80A1" stop-opacity="0.25"/>
<stop offset="1" stop-color="#69B9EB" stop-opacity="0"/>
</linearGradient>
<linearGradient id="paint1_linear_768_1092" x1="50.3836" y1="52.89" x2="67.9908" y2="6.74735" gradientUnits="userSpaceOnUse">
<stop offset="0.36" stop-color="#00272E"/>
<stop offset="0.75" stop-color="#3F80A1" stop-opacity="0.25"/>
<stop offset="1" stop-color="#69B9EB" stop-opacity="0"/>
</linearGradient>
</defs>
</svg>
