<svg width="188" height="143" viewBox="0 0 188 143" fill="none" xmlns="http://www.w3.org/2000/svg">
<path d="M184.894 102.996C185.662 102.335 186.28 101.566 186.71 100.685C188.107 97.8262 187.43 94.3977 184.808 91.0336L159.604 58.7097C158.745 57.6027 157.423 56.5924 155.821 55.7326C156.998 54.776 157.756 53.3143 157.756 51.6806V5.21805C157.756 2.33765 155.413 0 152.538 0H35.8061C32.9257 0 30.5881 2.34303 30.5881 5.21805V51.6806C30.5881 53.1692 31.2169 54.5073 32.2164 55.4585C30.3785 56.3721 28.8685 57.4845 27.9119 58.7097L2.70839 91.0336C0.0859375 94.3977 -0.591127 97.8262 0.806083 100.685C1.23599 101.561 1.85393 102.335 2.62239 102.996C1.07471 103.759 0 105.35 0 107.193V131.58C0 134.159 2.10117 136.26 4.68063 136.26H21.5385C21.5116 136.411 21.4902 136.567 21.4902 136.722V140.07C21.4902 141.613 22.7476 142.87 24.2899 142.87H49.1334C50.6757 142.87 51.9332 141.613 51.9332 140.07V136.722C51.9332 136.561 51.9118 136.411 51.8849 136.26H138.931C138.904 136.411 138.883 136.567 138.883 136.722V140.07C138.883 141.613 140.14 142.87 141.682 142.87H166.526C168.068 142.87 169.326 141.613 169.326 140.07V136.722C169.326 136.561 169.304 136.411 169.277 136.26H182.83C185.41 136.26 187.511 134.159 187.511 131.58V107.193C187.516 105.355 186.447 103.764 184.894 102.996ZM101.54 52.7554V25.6388C101.54 25.5582 101.615 25.483 101.695 25.483H145.347C145.428 25.483 145.503 25.5582 145.503 25.6388V52.7554C145.503 52.836 145.428 52.9113 145.347 52.9113H144.192H101.701C101.615 52.9113 101.54 52.836 101.54 52.7554ZM34.5755 5.21805C34.5755 4.55169 35.1398 3.98741 35.8061 3.98741H152.538C153.204 3.98741 153.768 4.55169 153.768 5.21805V51.6806C153.768 52.347 153.204 52.9113 152.538 52.9113H149.48C149.48 52.8576 149.485 52.8092 149.485 52.7554V25.6388C149.485 23.3549 147.626 21.4955 145.342 21.4955H101.69C99.4061 21.4955 97.5468 23.3549 97.5468 25.6388V52.7554C97.5468 52.8092 97.5522 52.8576 97.5522 52.9113H91.6032C91.6032 52.8576 91.6086 52.8092 91.6086 52.7554V25.6388C91.6086 23.3549 89.7493 21.4955 87.4654 21.4955H43.8133C41.5294 21.4955 39.6699 23.3549 39.6699 25.6388V52.7554C39.6699 52.8092 39.6753 52.8576 39.6753 52.9113H35.79C35.1236 52.9113 34.5595 52.347 34.5595 51.6806V5.21805H34.5755ZM43.6682 52.7554V25.6388C43.6682 25.5582 43.7435 25.483 43.8241 25.483H87.4761C87.5567 25.483 87.6319 25.5582 87.6319 25.6388V52.7554C87.6319 52.836 87.5567 52.9113 87.4761 52.9113H43.8241C43.7435 52.9113 43.6682 52.836 43.6682 52.7554ZM43.3242 56.8987H43.8187H87.4707H101.69H144.181C149.534 56.8987 154.848 59.102 156.45 61.1602L159.04 64.4812H28.4601L31.0503 61.1602C32.6624 59.1074 37.9772 56.8987 43.3242 56.8987ZM5.8521 93.4895L25.354 68.474H160.717C161.147 68.474 161.539 68.3343 161.867 68.1032L181.659 93.4895C183.271 95.5584 183.808 97.5414 183.126 98.9386C182.288 100.658 179.606 101.69 175.962 101.69H11.5485C7.90498 101.69 5.22874 100.664 4.38504 98.9386C3.70793 97.5468 4.23994 95.5584 5.8521 93.4895ZM183.529 131.585C183.529 131.961 183.212 132.278 182.836 132.278H4.67525C4.29908 132.278 3.982 131.961 3.982 131.585V107.198C3.982 106.822 4.29908 106.505 4.67525 106.505H182.836C183.212 106.505 183.529 106.822 183.529 107.198V131.585Z" fill="black"/>
</svg>
