<svg width="190" height="154" viewBox="0 0 190 154" fill="none" xmlns="http://www.w3.org/2000/svg">
<path d="M141.284 77.3008H48.7169C46.8863 77.3008 45.3975 78.7896 45.3975 80.6202V89.8319C45.3975 91.6625 46.8863 93.1514 48.7169 93.1514H93.0346V142.804H86.1349C84.3177 142.804 81.8214 143.303 80.7644 144.706L78.0252 148.349C77.3325 149.267 77.2065 150.392 77.6878 151.354C78.358 152.699 80.0177 153.441 82.3566 153.441H107.639C109.978 153.441 111.633 152.699 112.308 151.354C112.789 150.392 112.663 149.272 111.971 148.349L109.232 144.706C108.175 143.303 105.678 142.804 103.861 142.804H96.9703V93.1469H141.288C143.119 93.1469 144.607 91.6581 144.607 89.8274V80.6157C144.603 78.7896 143.114 77.3008 141.284 77.3008ZM106.173 147.176L107.914 149.487C107.828 149.492 107.738 149.492 107.644 149.492H82.3611C82.2667 149.492 82.1767 149.492 82.0913 149.487L83.8319 147.176C84.1288 147.009 85.0329 146.73 86.1394 146.73H103.87C104.972 146.735 105.876 147.009 106.173 147.176ZM140.667 89.2112H49.3331V81.2364H140.663V89.2112H140.667Z" fill="black"/>
<path d="M176.286 118.7C176.565 118.254 176.776 117.822 176.934 117.382L189.582 82.1542C190.895 78.4929 189.015 74.4268 185.381 73.0954L183.798 72.5152C182.048 71.872 180.145 71.9574 178.445 72.7491C176.731 73.5497 175.432 74.9755 174.793 76.7567L163.912 107.054H132.8C128.928 107.054 125.779 110.23 125.779 114.134V115.839C125.779 119.743 128.928 122.919 132.8 122.919H137.002L126.557 150.774C126.175 151.791 126.692 152.924 127.709 153.306C127.938 153.392 128.168 153.432 128.402 153.432C129.198 153.432 129.949 152.946 130.246 152.155L140.852 123.872C140.969 123.557 140.991 123.229 140.951 122.919H164.556C164.574 122.986 164.583 123.053 164.61 123.121L175.031 151.404C175.324 152.2 176.075 152.69 176.88 152.69C177.105 152.69 177.334 152.65 177.559 152.569C178.58 152.195 179.102 151.062 178.724 150.041L168.73 122.919H169.877C172.656 122.919 175.157 121.268 176.286 118.7ZM129.715 115.839V114.134C129.715 112.402 131.1 110.99 132.8 110.99H165.293C166.125 110.99 166.863 110.468 167.146 109.686L178.495 78.0836C178.778 77.2964 179.349 76.6667 180.109 76.3114C180.851 75.9651 181.679 75.9246 182.439 76.2079L184.022 76.7882C185.633 77.3774 186.46 79.19 185.876 80.8228L173.228 116.046C173.156 116.248 173.048 116.455 172.89 116.693C172.823 116.797 172.764 116.909 172.715 117.026C172.229 118.209 171.114 118.974 169.868 118.974H132.8C131.1 118.983 129.715 117.571 129.715 115.839Z" fill="black"/>
<path d="M64.2207 115.839V114.134C64.2207 110.23 61.0722 107.055 57.1995 107.055H26.0876L15.2072 76.7567C14.5685 74.9755 13.2686 73.5497 11.5549 72.7491C9.85468 71.953 7.95206 71.872 6.20238 72.5152L4.61913 73.0954C0.989327 74.4268 -0.895288 78.4929 0.418097 82.1542L13.0707 117.382C13.2281 117.822 13.4395 118.254 13.7184 118.7C14.8518 121.268 17.3482 122.914 20.1323 122.914H21.2793L11.285 150.036C10.9072 151.057 11.4334 152.186 12.45 152.564C12.6749 152.645 12.9042 152.686 13.1291 152.686C13.9298 152.686 14.6809 152.191 14.9778 151.399L25.3994 123.116C25.4219 123.049 25.4354 122.982 25.4533 122.914H49.0583C49.0133 123.229 49.0358 123.553 49.1572 123.868L59.7633 152.15C60.0601 152.942 60.8113 153.428 61.6074 153.428C61.8368 153.428 62.0707 153.387 62.3001 153.302C63.3166 152.92 63.8339 151.786 63.4515 150.77L53.0074 122.914H57.2085C61.0677 122.919 64.2207 119.743 64.2207 115.839ZM17.2807 117.035C17.2312 116.918 17.1772 116.81 17.1053 116.702C16.9478 116.46 16.8399 116.257 16.7679 116.055L4.11987 80.8273C3.53064 79.1946 4.36275 77.3819 5.97299 76.7927L7.55625 76.2125C7.89359 76.091 8.24442 76.0281 8.59526 76.0281C9.03605 76.0281 9.47685 76.127 9.89065 76.3204C10.6508 76.6757 11.222 77.3055 11.5054 78.0926L22.8536 109.695C23.1325 110.477 23.8746 110.999 24.7067 110.999H57.1995C58.8997 110.999 60.285 112.407 60.285 114.143V115.848C60.285 117.58 58.8997 118.992 57.1995 118.992H20.1323C18.8864 118.983 17.7665 118.218 17.2807 117.035Z" fill="black"/>
<path d="M96.8979 18.1985C96.9384 18.041 96.9654 17.8791 96.9654 17.7127V1.97008C96.9654 0.881585 96.0838 0 94.9953 0C93.9068 0 93.0252 0.881585 93.0252 1.97008V17.7127C93.0252 17.8836 93.0522 18.0455 93.0927 18.1985C83.4582 19.0396 75.9062 26.2182 75.9062 34.9171C75.9062 35.7313 75.9872 36.5903 76.1581 37.5439C76.3246 38.484 77.1432 39.1676 78.0967 39.1676H111.885C112.838 39.1676 113.653 38.484 113.823 37.5439C113.994 36.5858 114.075 35.7268 114.075 34.9171C114.084 26.2137 106.537 19.0396 96.8979 18.1985ZM110.144 35.232H79.8554C79.8509 35.124 79.8509 35.0206 79.8509 34.9171C79.8509 27.824 86.6472 22.0487 94.9998 22.0487C103.352 22.0487 110.149 27.8195 110.149 34.9171C110.149 35.0206 110.149 35.124 110.144 35.232Z" fill="black"/>
</svg>
