<svg width="170" height="166" viewBox="0 0 170 166" fill="none" xmlns="http://www.w3.org/2000/svg">
<path d="M165.421 70.5996H3.89628C1.74428 70.5996 0 72.349 0 74.4959V86.5152C0 87.8415 0.665729 89.0129 1.67722 89.7148V162.62C1.67722 164.483 3.19443 166 5.05744 166H13.072C14.935 166 16.4523 164.483 16.4523 162.62V90.4115H94.0639V116.752C94.0639 118.904 95.8134 120.648 97.9602 120.648H152.855V162.62C152.855 164.483 154.372 166 156.235 166H164.249C166.112 166 167.63 164.483 167.63 162.62V89.7148C168.641 89.0078 169.307 87.8363 169.307 86.5152V74.4959C169.317 72.349 167.568 70.5996 165.421 70.5996ZM4.69622 75.301H164.616V85.7204H164.255H156.24H153.66H97.9654H13.0772H5.06261H4.70138V75.301H4.69622ZM11.7561 161.309H6.37861V90.4167H11.7561V161.309ZM152.86 90.4167V100.836H98.7653V90.4167H152.86ZM98.7653 115.952V105.532H152.86V115.952H98.7653ZM162.939 161.309H157.561V116.757V90.4167H162.939V161.309Z" fill="black"/>
<path d="M130.013 97.1357H123.293C121.998 97.1357 120.945 96.0829 120.945 94.7876C120.945 93.4923 121.998 92.4395 123.293 92.4395H130.013C131.308 92.4395 132.361 93.4923 132.361 94.7876C132.361 96.0829 131.308 97.1357 130.013 97.1357Z" fill="black"/>
<path d="M130.013 112.256H123.293C121.998 112.256 120.945 111.203 120.945 109.908C120.945 108.613 121.998 107.56 123.293 107.56H130.013C131.308 107.56 132.361 108.613 132.361 109.908C132.361 111.203 131.308 112.256 130.013 112.256Z" fill="black"/>
<path d="M83.3915 13.6925L83.2522 13.486C83.1232 13.2951 82.9941 13.1093 82.8548 12.9235C79.9648 9.08913 76.0169 6.3901 71.7335 5.32184C69.3854 4.73868 67.0889 4.67673 64.9524 5.11023C64.6376 4.74382 64.266 4.39808 63.8325 4.10392L58.6099 0.5327C57.9132 0.0579167 57.0514 -0.0969268 56.2515 0.057894C55.6786 0.0217692 55.0903 0.186916 54.6155 0.579129L20.2298 28.7152C19.4454 28.5604 18.6145 28.5656 17.7888 28.772C16.3077 29.1332 15.0588 30.057 14.2692 31.3575C13.4797 32.658 13.2423 34.1959 13.6087 35.677C13.9699 37.1581 14.8937 38.407 16.1942 39.2017C17.0973 39.7488 18.1088 40.0275 19.1409 40.0275C19.306 40.0275 19.4661 40.012 19.6312 39.9965L42.5446 63.8802H29.7462C28.167 63.8802 26.8819 65.1652 26.8819 66.7444V69.0718C26.8819 70.651 28.167 71.936 29.7462 71.936H62.3101C63.8893 71.936 65.1743 70.651 65.1743 69.0718V66.7444C65.1743 65.1652 63.8893 63.8802 62.3101 63.8802H49.0574L23.8268 37.5813C24.7351 36.2808 25.1067 34.6139 24.699 32.9521C24.5803 32.4619 24.3893 32.0026 24.1571 31.5794L52.6854 8.23758L54.4297 12.041C54.6568 12.5364 54.9406 12.9751 55.2606 13.3518C54.6465 14.9362 54.2904 16.6702 54.2285 18.5229C54.0736 22.9353 55.5806 27.4767 58.4654 31.3111C58.6099 31.502 58.7596 31.6826 58.9092 31.8581L59.0589 32.0387C59.5233 32.6012 60.1942 32.8954 60.8754 32.8954C61.3709 32.8954 61.8663 32.7406 62.2895 32.4206L82.8858 16.9024C83.8818 16.1438 84.1089 14.7298 83.3915 13.6925ZM61.3554 27.2341C59.673 24.5557 58.8163 21.5677 58.9195 18.6829C58.9866 16.7837 59.4769 15.0807 60.3284 13.6563L64.5241 10.1212C65.5511 9.72903 66.6606 9.52775 67.832 9.52775C68.73 9.52775 69.6589 9.64648 70.6085 9.87871C73.4107 10.5754 76.0427 12.2268 78.1534 14.5801L61.3554 27.2341Z" fill="black"/>
<path d="M147.564 52.3566C146.986 51.6703 146.161 51.278 145.294 51.278H144.401L145.763 43.0983C145.975 41.8185 145.113 40.6057 143.833 40.3941C142.553 40.1774 141.341 41.0444 141.129 42.3242L139.638 51.278H139.524C139.534 51.1438 139.54 51.0097 139.529 50.8703L138.605 40.8328C138.487 39.5426 137.351 38.5827 136.051 38.7066C134.761 38.8253 133.806 39.971 133.925 41.2611L134.843 51.2728H134.606C133.739 51.2728 132.913 51.6651 132.335 52.3515C131.53 53.3062 131.236 54.7821 131.515 56.3974L133.734 69.1237C134.013 70.7287 135.365 71.9363 136.882 71.9363H143.013C144.53 71.9363 145.882 70.7287 146.161 69.1237L148.38 56.3974C148.664 54.7873 148.364 53.3114 147.564 52.3566ZM141.723 67.24H138.182L136.221 55.9794H143.689L141.723 67.24Z" fill="black"/>
</svg>
