<svg width="127" height="161" viewBox="0 0 127 161" fill="none" xmlns="http://www.w3.org/2000/svg">
<path d="M121.942 0H4.1626C1.86536 0 0 1.86993 0 4.16718V146.367C0 148.664 1.86996 150.534 4.1626 150.534H10.4709L6.44608 155.831C5.5961 156.952 5.40771 158.266 5.94527 159.351C6.45526 160.384 7.51199 161 8.76169 161H11.4816C12.9886 161 14.7437 160.081 15.7178 158.795L21.3 151.682C21.6033 151.283 21.7825 150.892 21.8743 150.534H103.05C103.146 150.888 103.325 151.264 103.624 151.659L109.018 158.762C110.02 160.081 111.77 161 113.277 161H115.997C117.247 161 118.299 160.384 118.813 159.351C119.351 158.266 119.163 156.952 118.313 155.831L114.288 150.534H121.942C124.24 150.534 126.105 148.664 126.105 146.367V4.16718C126.11 1.86993 124.24 0 121.942 0ZM122.374 146.367C122.374 146.601 122.177 146.794 121.942 146.794H4.1626C3.92829 146.794 3.73072 146.596 3.73072 146.367V4.16718C3.73072 3.93286 3.92829 3.73986 4.1626 3.73986H121.942C122.177 3.73986 122.374 3.93745 122.374 4.16718V146.367Z" fill="black"/>
<path d="M52.171 127.465C51.1373 127.465 50.3057 126.629 50.3057 125.595V114.109C50.3057 113.075 51.1419 112.239 52.171 112.239C53.2002 112.239 54.0364 113.075 54.0364 114.109V125.595C54.041 126.629 53.2048 127.465 52.171 127.465Z" fill="black"/>
<path d="M74.132 127.465C73.0982 127.465 72.2666 126.629 72.2666 125.595V114.109C72.2666 113.075 73.1028 112.239 74.132 112.239C75.1611 112.239 75.9973 113.075 75.9973 114.109V125.595C75.9973 126.629 75.1611 127.465 74.132 127.465Z" fill="black"/>
<path d="M117.578 11.2195C117.573 11.1552 117.568 11.0863 117.559 11.0219C117.545 10.9622 117.522 10.9071 117.509 10.8519C117.49 10.7922 117.476 10.7279 117.454 10.6728C117.431 10.6176 117.398 10.5671 117.366 10.512C117.339 10.4614 117.316 10.4062 117.279 10.3557C117.242 10.3052 117.201 10.2592 117.159 10.2087C117.123 10.1674 117.091 10.1168 117.054 10.08C117.008 10.0341 116.953 9.99274 116.898 9.95139C116.856 9.91923 116.819 9.88249 116.778 9.85032C116.718 9.80897 116.654 9.77682 116.59 9.74466C116.548 9.72169 116.507 9.69411 116.466 9.67573C116.392 9.64357 116.314 9.62518 116.241 9.6022C116.199 9.58842 116.158 9.57466 116.117 9.56547C116.034 9.54709 115.951 9.54253 115.864 9.53793C115.822 9.53334 115.786 9.52413 115.744 9.52413H115.735H115.731C115.731 9.52413 115.731 9.52413 115.726 9.52413L10.843 8.83496C10.8384 8.83496 10.8338 8.83496 10.8292 8.83496C9.80466 8.83496 8.96846 9.66193 8.96387 10.6911C8.96387 10.8151 8.97765 10.9346 8.99603 11.0541C8.97765 11.1643 8.96387 11.2792 8.96387 11.3941V107.29C8.96387 108.324 9.80006 109.16 10.8292 109.16H61.2583V148.664C61.2583 149.697 62.0945 150.534 63.1237 150.534C64.1529 150.534 64.9891 149.697 64.9891 148.664V109.16H115.726C116.76 109.16 117.591 108.324 117.591 107.29V11.3941C117.596 11.3343 117.587 11.2792 117.578 11.2195ZM12.6946 47.6859H113.861V74.2145H12.6946V47.6859ZM113.861 13.2503V43.9506H12.6946V12.5886L113.861 13.2503ZM12.6946 105.425V77.9498H113.861V105.425H12.6946Z" fill="black"/>
<path d="M18.9843 47.0613H10.8291C10.1399 47.0613 9.58398 46.5053 9.58398 45.8162V20.4546C9.58398 19.7654 10.1399 19.2095 10.8291 19.2095H18.9843C19.6735 19.2095 20.2294 19.7654 20.2294 20.4546V45.8162C20.2294 46.5053 19.6689 47.0613 18.9843 47.0613ZM12.0742 44.5711H17.7392V21.6997H12.0742V44.5711Z" fill="black"/>
<path d="M24.3275 46.0138H18.9795C18.2903 46.0138 17.7344 45.4579 17.7344 44.7687V23.6386C17.7344 22.9495 18.2903 22.3936 18.9795 22.3936H24.3275C25.0166 22.3936 25.5726 22.9495 25.5726 23.6386V44.7687C25.5726 45.4533 25.0166 46.0138 24.3275 46.0138ZM20.2292 43.5236H23.0869V24.8837H20.2292V43.5236Z" fill="black"/>
<path d="M29.8961 46.6482H25.3154C24.6263 46.6482 24.0703 46.0923 24.0703 45.4031V20.1977C24.0703 19.5086 24.6263 18.9526 25.3154 18.9526H29.8961C30.5853 18.9526 31.1412 19.5086 31.1412 20.1977V45.4031C31.1412 46.0923 30.5807 46.6482 29.8961 46.6482ZM26.5559 44.158H28.6464V21.4428H26.5559V44.158Z" fill="black"/>
<path d="M33.8432 47.0611H29.8965C29.2073 47.0611 28.6514 46.5052 28.6514 45.8161V22.9033C28.6514 22.2142 29.2073 21.6582 29.8965 21.6582H33.8432C34.5323 21.6582 35.0882 22.2142 35.0882 22.9033V45.8161C35.0882 46.5052 34.5277 47.0611 33.8432 47.0611ZM31.1416 44.571H32.598V24.1484H31.1416V44.571Z" fill="black"/>
<path d="M40.4595 46.9276H33.8389C33.1497 46.9276 32.5938 46.3717 32.5938 45.6825V24.8052C32.5938 24.116 33.1497 23.5601 33.8389 23.5601H40.4595C41.1487 23.5601 41.7046 24.116 41.7046 24.8052V45.6825C41.7046 46.3717 41.1487 46.9276 40.4595 46.9276ZM35.0886 44.4374H39.219V26.0503H35.0886V44.4374Z" fill="black"/>
<path d="M44.4056 46.2984H40.459C39.7698 46.2984 39.2139 45.7425 39.2139 45.0534V22.9033C39.2139 22.2142 39.7698 21.6582 40.459 21.6582H44.4056C45.0948 21.6582 45.6507 22.2142 45.6507 22.9033V45.0534C45.6507 45.7425 45.0948 46.2984 44.4056 46.2984ZM41.7041 43.8083H43.1605V24.1484H41.7041V43.8083Z" fill="black"/>
<path d="M48.6095 46.014H44.4102C43.721 46.014 43.165 45.458 43.165 44.7689V22.4902C43.165 21.801 43.721 21.2451 44.4102 21.2451H48.6095C49.2987 21.2451 49.8546 21.801 49.8546 22.4902V44.7689C49.8546 45.4534 49.2941 46.014 48.6095 46.014ZM45.6506 43.5238H47.3598V23.7353H45.6506V43.5238Z" fill="black"/>
<path d="M73.4338 46.4134C72.979 46.4134 72.5425 46.1653 72.322 45.7335L61.8879 25.1915C61.7363 24.8975 61.7133 24.5575 61.8144 24.2405C61.9155 23.9281 62.1406 23.6661 62.4346 23.5145L67.4288 20.9784C68.0445 20.6659 68.7934 20.9095 69.1012 21.5251L79.5353 42.0671C79.6869 42.3611 79.7099 42.7011 79.6088 43.0182C79.5078 43.3306 79.2826 43.5924 78.9886 43.7441L73.9944 46.2802C73.8152 46.3675 73.6222 46.4134 73.4338 46.4134ZM64.6722 25.1731L73.9806 43.4959L76.7557 42.0855L67.4472 23.7626L64.6722 25.1731Z" fill="black"/>
<path d="M113.783 107.368H108.816C108.127 107.368 107.571 106.812 107.571 106.123V82.0664C107.571 81.3773 108.127 80.8213 108.816 80.8213H113.783C114.472 80.8213 115.028 81.3773 115.028 82.0664V106.123C115.028 106.808 114.472 107.368 113.783 107.368ZM110.061 104.878H112.538V83.3115H110.061V104.878Z" fill="black"/>
<path d="M108.692 108.535H103.982C103.293 108.535 102.737 107.979 102.737 107.29V82.8247C102.737 82.1355 103.293 81.5796 103.982 81.5796H108.692C109.381 81.5796 109.937 82.1355 109.937 82.8247V107.29C109.937 107.979 109.376 108.535 108.692 108.535ZM105.228 106.045H107.447V84.0698H105.228V106.045Z" fill="black"/>
<path d="M103.601 107.571H96.2177C95.5286 107.571 94.9727 107.015 94.9727 106.325V81.8598C94.9727 81.1707 95.5286 80.6147 96.2177 80.6147H103.601C104.29 80.6147 104.846 81.1707 104.846 81.8598V106.325C104.846 107.015 104.286 107.571 103.601 107.571ZM97.4629 105.08H102.356V83.105H97.4629V105.08Z" fill="black"/>
<path d="M95.7855 107.369H91.8389C91.1497 107.369 90.5938 106.813 90.5938 106.124V86.1377C90.5938 85.4485 91.1497 84.8926 91.8389 84.8926H95.7855C96.4747 84.8926 97.0306 85.4485 97.0306 86.1377V106.124C97.0306 106.808 96.4747 107.369 95.7855 107.369ZM93.084 104.879H94.5404V87.3828H93.084V104.879Z" fill="black"/>
<path d="M91.1546 107.369H85.8066C85.1175 107.369 84.5615 106.813 84.5615 106.124V82.8296C84.5615 82.1404 85.1175 81.5845 85.8066 81.5845H91.1546C91.8438 81.5845 92.3997 82.1404 92.3997 82.8296V106.124C92.3997 106.808 91.8438 107.369 91.1546 107.369ZM87.0563 104.879H89.9141V84.0747H87.0563V104.879Z" fill="black"/>
<path d="M85.4435 107.368H80.6055C79.9163 107.368 79.3604 106.812 79.3604 106.123V84.9932C79.3604 84.304 79.9163 83.748 80.6055 83.748H85.4435C86.1326 83.748 86.6886 84.304 86.6886 84.9932V106.123C86.6886 106.808 86.1326 107.368 85.4435 107.368ZM81.8506 104.878H84.1984V86.2383H81.8506V104.878Z" fill="black"/>
<path d="M79.7692 106.904H73.8193C73.1301 106.904 72.5742 106.349 72.5742 105.659V84.5293C72.5742 83.8402 73.1301 83.2842 73.8193 83.2842H79.7692C80.4583 83.2842 81.0143 83.8402 81.0143 84.5293V105.659C81.0143 106.349 80.4583 106.904 79.7692 106.904ZM75.0644 104.414H78.5241V85.7744H75.0644V104.414Z" fill="black"/>
<path d="M74.0303 107.369H67.791C67.1018 107.369 66.5459 106.813 66.5459 106.124V86.1377C66.5459 85.4485 67.1018 84.8926 67.791 84.8926H74.0303C74.7195 84.8926 75.2754 85.4485 75.2754 86.1377V106.124C75.2754 106.808 74.7149 107.369 74.0303 107.369ZM69.0361 104.879H72.7852V87.3828H69.0361V104.879Z" fill="black"/>
<path d="M47.36 108.958C47.1946 108.958 47.0246 108.926 46.8592 108.853L41.7318 106.601C41.4285 106.468 41.1942 106.22 41.0701 105.912C40.9507 105.604 40.9553 105.26 41.0885 104.961L50.2591 84.0745C50.3924 83.7713 50.6405 83.537 50.9483 83.4129C51.2561 83.2935 51.6007 83.2981 51.8994 83.4313L57.0268 85.6826C57.6562 85.9583 57.9411 86.6934 57.6654 87.3228L48.4948 108.209C48.2973 108.678 47.8424 108.958 47.36 108.958ZM43.8728 104.819L46.7214 106.068L54.8904 87.4653L52.0418 86.2155L43.8728 104.819Z" fill="black"/>
<path d="M113.782 77.3251H90.3593C89.6702 77.3251 89.1143 76.7692 89.1143 76.08V69.271C89.1143 68.5818 89.6702 68.0259 90.3593 68.0259H113.782C114.471 68.0259 115.027 68.5818 115.027 69.271V76.08C115.027 76.7692 114.471 77.3251 113.782 77.3251ZM91.6045 74.8349H112.537V70.5161H91.6045V74.8349Z" fill="black"/>
<path d="M114.228 70.5157H92.9697C92.2806 70.5157 91.7246 69.9598 91.7246 69.2706V64.3086C91.7246 63.6194 92.2806 63.0635 92.9697 63.0635H114.228C114.918 63.0635 115.474 63.6194 115.474 64.3086V69.2706C115.474 69.9598 114.918 70.5157 114.228 70.5157ZM94.2148 68.0255H112.983V65.5537H94.2148V68.0255Z" fill="black"/>
<path d="M113.782 65.5495H94.1777C93.4885 65.5495 92.9326 64.9936 92.9326 64.3044V58.5108C92.9326 57.8216 93.4885 57.2656 94.1777 57.2656H113.782C114.472 57.2656 115.027 57.8216 115.027 58.5108V64.3044C115.027 64.9936 114.472 65.5495 113.782 65.5495ZM95.4228 63.0593H112.537V59.7559H95.4228V63.0593Z" fill="black"/>
<path d="M38.4236 55.3594H13.5215C12.8323 55.3594 12.2764 55.9153 12.2764 56.6045V76.0805C12.2764 76.7697 12.8323 77.3256 13.5215 77.3256H38.4236C39.1128 77.3256 39.6687 76.7697 39.6687 76.0805V56.6045C39.6687 55.9153 39.1128 55.3594 38.4236 55.3594ZM37.1785 57.8496V61.153H14.7666V57.8496H37.1785ZM14.7666 74.8354V63.6387H37.1785V74.8354H14.7666Z" fill="black"/>
<path d="M28.7481 67.268H23.1475C22.4583 67.268 21.9023 66.7121 21.9023 66.0229C21.9023 65.3337 22.4583 64.7778 23.1475 64.7778H28.7481C29.4373 64.7778 29.9933 65.3337 29.9933 66.0229C29.9933 66.7121 29.4373 67.268 28.7481 67.268Z" fill="black"/>
<path d="M67.9199 107.369H63.0498C62.3606 107.369 61.8047 106.813 61.8047 106.124V86.7441C61.8047 86.0549 62.3606 85.499 63.0498 85.499H67.9199C68.6091 85.499 69.1651 86.0549 69.1651 86.7441V106.124C69.1651 106.808 68.6091 107.369 67.9199 107.369ZM64.2995 104.879H66.6794V87.9893H64.2995V104.879Z" fill="black"/>
<path d="M63.055 108.536H57.5508C56.8616 108.536 56.3057 107.98 56.3057 107.291V84.9893C56.3057 84.3001 56.8616 83.7441 57.5508 83.7441H63.055C63.7441 83.7441 64.3001 84.3001 64.3001 84.9893V107.291C64.3001 107.98 63.7395 108.536 63.055 108.536ZM58.7913 106.046H61.8053V86.2344H58.7913V106.046Z" fill="black"/>
<path d="M56.5449 46.9007H49.3867C48.6975 46.9007 48.1416 46.3447 48.1416 45.6556V20.4502C48.1416 19.761 48.6975 19.2051 49.3867 19.2051H56.5449C57.2341 19.2051 57.79 19.761 57.79 20.4502V45.6556C57.79 46.3447 57.2295 46.9007 56.5449 46.9007ZM50.6318 44.4104H55.2998V21.6953H50.6318V44.4104Z" fill="black"/>
<path d="M62.2733 46.2982H56.5439C55.8548 46.2982 55.2988 45.7423 55.2988 45.0531V24.8052C55.2988 24.116 55.8548 23.5601 56.5439 23.5601H62.2733C62.9625 23.5601 63.5184 24.116 63.5184 24.8052V45.0531C63.5184 45.7423 62.9625 46.2982 62.2733 46.2982ZM57.7891 43.808H61.0282V26.0503H57.7891V43.808Z" fill="black"/>
</svg>
