<svg width="183" height="138" viewBox="0 0 183 138" fill="none" xmlns="http://www.w3.org/2000/svg">
<path d="M153.732 126.823H28.9842C26.8707 126.823 25.1523 125.105 25.1523 122.991V100.252C25.1523 98.1388 26.8707 96.4204 28.9842 96.4204H153.732C155.846 96.4204 157.564 98.1388 157.564 100.252V122.991C157.569 125.1 155.846 126.823 153.732 126.823ZM153.708 100.248L28.989 100.271L29.0128 122.987L153.708 122.963V100.248Z" fill="black"/>
<path d="M178.884 72.6578H157.54C157.274 72.6578 157.012 72.6864 156.755 72.7388V52.2942C156.755 49.6571 154.608 47.5103 151.971 47.5103H117.16C115.647 47.5103 114.299 48.2195 113.419 49.3191C112.543 48.2195 111.191 47.5103 109.677 47.5103H74.2147C72.5201 47.5103 71.0302 48.4004 70.1781 49.7332C69.3261 48.4004 67.8409 47.5103 66.1416 47.5103H31.331C28.6939 47.5103 26.5471 49.6571 26.5471 52.2942V72.9197C26.1187 72.7578 25.6617 72.6626 25.1762 72.6626H3.8319C1.71842 72.6626 0 74.381 0 76.4945V134.168C0 136.281 1.71842 138 3.8319 138H25.1762C27.2896 138 29.0081 136.281 29.0081 134.168V129.617H153.704V134.168C153.704 136.281 155.422 138 157.535 138H178.88C180.993 138 182.712 136.281 182.712 134.168V76.4897C182.716 74.3762 180.998 72.6578 178.884 72.6578ZM25.1524 134.139L3.86043 134.163L3.83667 76.5135L25.1524 76.4897V134.139ZM70.1829 98.0482C71.035 99.381 72.5201 100.271 74.2195 100.271H109.682C111.196 100.271 112.543 99.5619 113.424 98.4623C114.299 99.5619 115.651 100.271 117.165 100.271H151.976C152.59 100.271 153.17 100.152 153.713 99.9427V122.963H29.0176V99.6666C29.7078 100.052 30.498 100.271 31.3405 100.271H66.1511C67.8409 100.271 69.3308 99.3858 70.1829 98.0482ZM116.237 52.2894C116.237 51.7896 116.66 51.3612 117.165 51.3612H151.976C152.475 51.3612 152.904 51.7848 152.904 52.2894V95.4825C152.904 95.9823 152.48 96.4107 151.976 96.4107H117.165C116.665 96.4107 116.237 95.9871 116.237 95.4825V52.2894ZM73.2913 52.2894C73.2913 51.7896 73.7149 51.3612 74.2195 51.3612H109.682C110.182 51.3612 110.61 51.7848 110.61 52.2894V95.4825C110.61 95.9823 110.187 96.4107 109.682 96.4107H74.2195C73.7196 96.4107 73.2913 95.9871 73.2913 95.4825V52.2894ZM30.4075 52.2894C30.4075 51.7896 30.8312 51.3612 31.3358 51.3612H66.1463C66.6462 51.3612 67.0745 51.7848 67.0745 52.2894V95.4825C67.0745 95.9823 66.6509 96.4107 66.1463 96.4107H31.3358C30.8359 96.4107 30.4075 95.9871 30.4075 95.4825V52.2894ZM157.569 134.139L157.545 76.5183L178.861 76.4945L178.884 134.144H157.569V134.139Z" fill="black"/>
<path d="M144.174 34.5964H38.9901C36.8766 34.5964 35.1582 32.878 35.1582 30.7645V3.83188C35.1582 1.7184 36.8766 0 38.9901 0H144.174C146.287 0 148.006 1.7184 148.006 3.83188V30.7645C148.006 32.878 146.287 34.5964 144.174 34.5964ZM144.145 3.83188L38.9853 3.85567L39.0092 30.7645L144.141 30.7407V3.83188H144.145Z" fill="black"/>
<path d="M133.502 24.8189H49.6622C48.596 24.8189 47.7344 23.9526 47.7344 22.8911V10.3102C47.7344 9.2439 48.6007 8.38232 49.6622 8.38232H133.502C134.568 8.38232 135.43 9.24866 135.43 10.3102V22.8863C135.43 23.9526 134.568 24.8189 133.502 24.8189ZM51.59 20.9585H131.569V12.2428H51.59V20.9585Z" fill="black"/>
</svg>
