<svg width="150" height="154" viewBox="0 0 150 154" fill="none" xmlns="http://www.w3.org/2000/svg">
<path d="M150 123.91C149.923 103.143 149.646 54.54 148.855 51.7905C147.273 46.3043 141.557 42.5889 133.846 41.9579V26.1238C133.846 26.0659 133.846 26.0143 133.84 25.9564C133.197 15.087 132.02 8.44176 127.635 4.46877C123.461 0.688957 117.14 0 106.182 0H46.1018C35.4979 0 28.54 2.07344 24.2058 6.53581C20.2189 10.644 18.4376 16.6839 18.4376 26.1238V39.8522C11.4155 39.8716 5.39652 43.1298 1.34528 49.1762C0.541458 50.3739 -0.551791 52.0158 0.322763 88.6549C0.734317 105.86 1.40953 122.892 1.45454 123.974C1.4867 130.883 6.89477 136.608 13.9041 137.561L8.05872 146.331C6.8755 148.108 6.68255 150.053 7.54425 151.663C8.32877 153.131 9.84642 154 11.6084 154H15.4089C17.666 154 20.2446 152.5 21.685 150.33L28.9066 139.364C29.2988 138.771 29.5431 138.211 29.6782 137.696H122.445C122.574 138.037 122.754 138.391 122.998 138.765L130.773 150.342C132.207 152.493 134.785 153.994 137.042 153.994H140.843C142.605 153.994 144.123 153.118 144.907 151.656C145.769 150.046 145.576 148.108 144.393 146.324L138.451 137.406C145.042 136.105 150 130.548 150 123.91ZM46.1018 5.66008H106.182C115.487 5.66008 121.056 6.13654 123.847 8.66714C126.394 10.9724 127.577 15.7309 128.194 26.2075V42.0802C121.969 42.8658 115.841 45.8149 113.552 51.5201C112.33 54.5723 111.88 65.0102 111.758 75.8281C105.816 72.8403 94.2987 68.5453 77.1741 68.5453C57.8632 68.5453 46.1083 72.8531 40.2436 75.8731C40.0378 64.1022 39.4783 52.5182 38.1086 49.5948C36.4624 46.0789 30.7779 42.0673 24.0901 40.5154V26.1238C24.0901 12.2602 27.3825 5.66008 46.1018 5.66008ZM111.912 100.387L40.2821 100.207C40.3272 96.1115 40.3786 89.4921 40.3272 82.3445C43.6389 80.226 55.0017 74.2054 77.1806 74.2054C96.3372 74.2054 107.944 80.0135 111.725 82.2673C111.719 89.4856 111.828 96.2403 111.912 100.387ZM135.486 132.049H15.9748C11.0875 132.049 7.11345 128.404 7.11345 123.916C7.11345 123.877 7.11345 123.839 7.11345 123.8C5.83377 92.1514 5.08781 56.5684 6.20672 52.0932C10.3094 46.1498 15.8782 45.2483 19.8523 45.5509C26.6494 46.0661 32.1025 50.0777 32.9964 51.9901C34.4368 55.126 34.9384 80.3805 34.5911 102.982C34.5783 103.742 34.8741 104.47 35.4014 105.01C35.9287 105.551 36.6553 105.854 37.4077 105.854L114.793 106.047H114.799C115.558 106.047 116.285 105.738 116.818 105.197C117.352 104.65 117.642 103.916 117.622 103.15C117.474 97.0323 117.378 89.4212 117.384 82.0032C117.693 81.2885 117.68 80.4964 117.391 79.801C117.442 67.4377 117.815 56.0726 118.793 53.6257C120.542 49.2599 127.094 47.2637 132.676 47.5406C136.882 47.7531 142.18 49.3758 143.383 53.2586C143.897 56.8259 144.232 97.3671 144.335 123.91C144.348 128.398 140.374 132.049 135.486 132.049Z" fill="black"/>
</svg>
