<svg width="130" height="166" viewBox="0 0 130 166" fill="none" xmlns="http://www.w3.org/2000/svg">
<path d="M32.5263 86.9601C31.4941 86.9601 30.6562 86.1223 30.6562 85.0901V71.9491C30.6562 70.9169 31.4941 70.0791 32.5263 70.0791C33.5585 70.0791 34.3963 70.9169 34.3963 71.9491V85.0901C34.4009 86.1176 33.5631 86.9601 32.5263 86.9601Z" fill="black"/>
<path d="M50.0458 86.9601C49.0136 86.9601 48.1758 86.1223 48.1758 85.0901V71.9491C48.1758 70.9169 49.0136 70.0791 50.0458 70.0791C51.078 70.0791 51.9157 70.9169 51.9157 71.9491V85.0901C51.9203 86.1176 51.078 86.9601 50.0458 86.9601Z" fill="black"/>
<path d="M93.8427 86.9601C92.8105 86.9601 91.9727 86.1223 91.9727 85.0901V71.9491C91.9727 70.9169 92.8105 70.0791 93.8427 70.0791C94.8749 70.0791 95.7127 70.9169 95.7127 71.9491V85.0901C95.7127 86.1176 94.8749 86.9601 93.8427 86.9601Z" fill="black"/>
<path d="M111.363 114.695H102.605C101.573 114.695 100.735 113.857 100.735 112.825C100.735 111.793 101.573 110.955 102.605 110.955H111.363C112.395 110.955 113.233 111.793 113.233 112.825C113.233 113.857 112.395 114.695 111.363 114.695Z" fill="black"/>
<path d="M111.363 143.893H102.605C101.573 143.893 100.735 143.056 100.735 142.023C100.735 140.991 101.573 140.153 102.605 140.153H111.363C112.395 140.153 113.233 140.991 113.233 142.023C113.233 143.056 112.395 143.893 111.363 143.893Z" fill="black"/>
<path d="M124.642 0H4.64726C2.08294 0 0 2.08756 0 4.64724V158.219C0 160.172 1.21275 161.843 2.92075 162.533V163.667C2.92075 164.954 3.96681 166 5.25359 166H124.036C125.323 166 126.369 164.954 126.369 163.667V162.533C128.077 161.843 129.29 160.172 129.29 158.219V4.65187C129.29 2.08756 127.207 0 124.642 0ZM83.2106 4.79073V159.126H43.1582V3.74464H83.53C83.3309 4.04551 83.2106 4.40655 83.2106 4.79073ZM125.545 158.224C125.545 158.714 125.128 159.131 124.638 159.131H86.9507V135.14H125.54V158.224H125.545ZM86.9553 131.391V105.938H125.545V131.391H86.9553ZM125.545 4.65187V102.193H86.9553V4.79073C86.9553 4.40192 86.8349 4.04088 86.6358 3.74464H124.642C125.133 3.74464 125.545 4.16123 125.545 4.65187ZM3.74005 4.65187C3.74005 4.16123 4.15661 3.74464 4.64726 3.74464H39.4136V159.126H4.64726C4.15661 159.126 3.74005 158.71 3.74005 158.219V4.65187Z" fill="black"/>
</svg>
