<svg width="141" height="161" viewBox="0 0 141 161" fill="none" xmlns="http://www.w3.org/2000/svg">
<path d="M136.5 54.519H136.406C134.353 54.3606 127.336 53.856 124.743 54.0379C121.522 54.2667 117.638 55.2054 116.225 60.456L110.886 79.9275C110.88 79.9569 110.88 79.9803 110.874 80.0097C110.833 80.0097 110.798 80.0038 110.757 80.0038H103.371C107.172 77.6865 109.971 73.5211 110.44 68.775L115.468 17.6821C115.972 12.5253 114.494 7.60907 111.402 4.20054C108.95 1.496 105.67 0 102.168 0H37.9104C34.4079 0 31.1285 1.49014 28.6762 4.20054C25.5845 7.60907 24.1061 12.5195 24.6107 17.6821L29.6384 68.775C30.1078 73.5211 32.9062 77.6865 36.7078 80.0038H28.2538C28.248 79.9803 28.248 79.9569 28.2421 79.9275L22.6219 59.447C21.824 56.4784 20.768 54.5131 18.1984 53.5862C17.8112 53.3984 17.3946 53.2811 16.9487 53.24C16.4383 53.1403 15.8811 53.064 15.271 53.023C13.4054 52.888 9.26351 53.0699 6.34778 53.2283H3.62556C1.62503 53.2283 0 54.8534 0 56.8539V59.7286C0 61.7291 1.62503 63.3542 3.62556 63.3542H16.6319C17.1658 63.3542 17.6762 63.2369 18.1338 63.0257L23.1264 81.2182C20.9264 82.6086 19.4538 85.0609 19.4538 87.8475V102.444C19.4538 106.768 22.9739 110.288 27.2976 110.288H65.4369C65.3958 110.493 65.3723 110.704 65.3723 110.921V150.228H46.904C44.8037 150.228 43.0907 151.941 43.0907 154.041V157.156C43.0907 159.257 44.8037 160.97 46.904 160.97H95.1867C97.287 160.97 99.0001 159.257 99.0001 157.156V154.041C99.0001 151.941 97.287 150.228 95.1867 150.228H74.6945V110.921C74.6945 110.704 74.671 110.493 74.6299 110.288H110.745C115.069 110.288 118.589 106.768 118.589 102.444V87.8475C118.589 85.4305 117.486 83.2657 115.761 81.8283C115.843 81.6699 115.914 81.5057 115.961 81.3238L120.848 63.5067C121.51 64.2048 122.443 64.6449 123.476 64.6449H136.482C138.483 64.6449 140.108 63.0198 140.108 61.0192V58.1446C140.125 56.144 138.5 54.519 136.5 54.519ZM33.5867 68.3878L28.5589 17.2949C28.16 13.2469 29.2746 9.44534 31.6154 6.864C33.3344 4.96907 35.5109 3.96587 37.9162 3.96587H102.174C104.579 3.96587 106.756 4.96907 108.475 6.864C110.815 9.44534 111.93 13.2469 111.531 17.2949L106.504 68.3878C105.981 73.6737 101.581 77.9739 96.6945 77.9739H43.3899C38.5029 77.9739 34.103 73.6737 33.5867 68.3878ZM114.646 102.438C114.646 104.579 112.904 106.328 110.757 106.328H27.3035C25.1622 106.328 23.4138 104.585 23.4138 102.438V87.8417C23.4138 85.7003 25.1563 83.9521 27.3035 83.9521H110.757C112.898 83.9521 114.646 85.6945 114.646 87.8417V102.438Z" fill="black"/>
</svg>
