<svg width="110" height="44" viewBox="0 0 110 44" fill="none" xmlns="http://www.w3.org/2000/svg">
<path d="M-2 0H110V44H-2V0Z" fill="#FF9800"/>
<path d="M19.478 15.454V16.786H14.024V21.016H18.452V22.348H14.024V28H12.386V15.454H19.478ZM30.8163 22.69C30.8163 23.002 30.7983 23.332 30.7623 23.68H22.8783C22.9383 24.652 23.2683 25.414 23.8683 25.966C24.4803 26.506 25.2183 26.776 26.0823 26.776C26.7903 26.776 27.3783 26.614 27.8463 26.29C28.3263 25.954 28.6623 25.51 28.8543 24.958H30.6183C30.3543 25.906 29.8263 26.68 29.0343 27.28C28.2423 27.868 27.2583 28.162 26.0823 28.162C25.1463 28.162 24.3063 27.952 23.5623 27.532C22.8303 27.112 22.2543 26.518 21.8343 25.75C21.4143 24.97 21.2043 24.07 21.2043 23.05C21.2043 22.03 21.4083 21.136 21.8163 20.368C22.2243 19.6 22.7943 19.012 23.5263 18.604C24.2703 18.184 25.1223 17.974 26.0823 17.974C27.0183 17.974 27.8463 18.178 28.5663 18.586C29.2863 18.994 29.8383 19.558 30.2223 20.278C30.6183 20.986 30.8163 21.79 30.8163 22.69ZM29.1243 22.348C29.1243 21.724 28.9863 21.19 28.7103 20.746C28.4343 20.29 28.0563 19.948 27.5763 19.72C27.1083 19.48 26.5863 19.36 26.0103 19.36C25.1823 19.36 24.4743 19.624 23.8863 20.152C23.3103 20.68 22.9803 21.412 22.8963 22.348H29.1243ZM32.7264 23.032C32.7264 22.024 32.9304 21.142 33.3384 20.386C33.7464 19.618 34.3044 19.024 35.0124 18.604C35.7324 18.184 36.5304 17.974 37.4064 17.974C38.2704 17.974 39.0204 18.16 39.6564 18.532C40.2924 18.904 40.7664 19.372 41.0784 19.936V18.136H42.7344V28H41.0784V26.164C40.7544 26.74 40.2684 27.22 39.6204 27.604C38.9844 27.976 38.2404 28.162 37.3884 28.162C36.5124 28.162 35.7204 27.946 35.0124 27.514C34.3044 27.082 33.7464 26.476 33.3384 25.696C32.9304 24.916 32.7264 24.028 32.7264 23.032ZM41.0784 23.05C41.0784 22.306 40.9284 21.658 40.6284 21.106C40.3284 20.554 39.9204 20.134 39.4044 19.846C38.9004 19.546 38.3424 19.396 37.7304 19.396C37.1184 19.396 36.5604 19.54 36.0564 19.828C35.5524 20.116 35.1504 20.536 34.8504 21.088C34.5504 21.64 34.4004 22.288 34.4004 23.032C34.4004 23.788 34.5504 24.448 34.8504 25.012C35.1504 25.564 35.5524 25.99 36.0564 26.29C36.5604 26.578 37.1184 26.722 37.7304 26.722C38.3424 26.722 38.9004 26.578 39.4044 26.29C39.9204 25.99 40.3284 25.564 40.6284 25.012C40.9284 24.448 41.0784 23.794 41.0784 23.05ZM47.8605 19.486V25.3C47.8605 25.78 47.9625 26.122 48.1665 26.326C48.3705 26.518 48.7245 26.614 49.2285 26.614H50.4345V28H48.9585C48.0465 28 47.3625 27.79 46.9065 27.37C46.4505 26.95 46.2225 26.26 46.2225 25.3V19.486H44.9445V18.136H46.2225V15.652H47.8605V18.136H50.4345V19.486H47.8605ZM61.5271 18.136V28H59.8891V26.542C59.5771 27.046 59.1391 27.442 58.5751 27.73C58.0231 28.006 57.4111 28.144 56.7391 28.144C55.9711 28.144 55.2811 27.988 54.6691 27.676C54.0571 27.352 53.5711 26.872 53.2111 26.236C52.8631 25.6 52.6891 24.826 52.6891 23.914V18.136H54.3091V23.698C54.3091 24.67 54.5551 25.42 55.0471 25.948C55.5391 26.464 56.2111 26.722 57.0631 26.722C57.9391 26.722 58.6291 26.452 59.1331 25.912C59.6371 25.372 59.8891 24.586 59.8891 23.554V18.136H61.5271ZM66.2908 19.738C66.5788 19.174 66.9868 18.736 67.5148 18.424C68.0548 18.112 68.7088 17.956 69.4768 17.956V19.648H69.0448C67.2088 19.648 66.2908 20.644 66.2908 22.636V28H64.6528V18.136H66.2908V19.738ZM80.7276 22.69C80.7276 23.002 80.7096 23.332 80.6736 23.68H72.7896C72.8496 24.652 73.1796 25.414 73.7796 25.966C74.3916 26.506 75.1296 26.776 75.9936 26.776C76.7016 26.776 77.2896 26.614 77.7576 26.29C78.2376 25.954 78.5736 25.51 78.7656 24.958H80.5296C80.2656 25.906 79.7376 26.68 78.9456 27.28C78.1536 27.868 77.1696 28.162 75.9936 28.162C75.0576 28.162 74.2176 27.952 73.4736 27.532C72.7416 27.112 72.1656 26.518 71.7456 25.75C71.3256 24.97 71.1156 24.07 71.1156 23.05C71.1156 22.03 71.3196 21.136 71.7276 20.368C72.1356 19.6 72.7056 19.012 73.4376 18.604C74.1816 18.184 75.0336 17.974 75.9936 17.974C76.9296 17.974 77.7576 18.178 78.4776 18.586C79.1976 18.994 79.7496 19.558 80.1336 20.278C80.5296 20.986 80.7276 21.79 80.7276 22.69ZM79.0356 22.348C79.0356 21.724 78.8976 21.19 78.6216 20.746C78.3456 20.29 77.9676 19.948 77.4876 19.72C77.0196 19.48 76.4976 19.36 75.9216 19.36C75.0936 19.36 74.3856 19.624 73.7976 20.152C73.2216 20.68 72.8916 21.412 72.8076 22.348H79.0356ZM82.6377 23.032C82.6377 22.024 82.8417 21.142 83.2497 20.386C83.6577 19.618 84.2157 19.024 84.9237 18.604C85.6437 18.184 86.4477 17.974 87.3357 17.974C88.1037 17.974 88.8177 18.154 89.4777 18.514C90.1377 18.862 90.6417 19.324 90.9897 19.9V14.68H92.6457V28H90.9897V26.146C90.6657 26.734 90.1857 27.22 89.5497 27.604C88.9137 27.976 88.1697 28.162 87.3177 28.162C86.4417 28.162 85.6437 27.946 84.9237 27.514C84.2157 27.082 83.6577 26.476 83.2497 25.696C82.8417 24.916 82.6377 24.028 82.6377 23.032ZM90.9897 23.05C90.9897 22.306 90.8397 21.658 90.5397 21.106C90.2397 20.554 89.8317 20.134 89.3157 19.846C88.8117 19.546 88.2537 19.396 87.6417 19.396C87.0297 19.396 86.4717 19.54 85.9677 19.828C85.4637 20.116 85.0617 20.536 84.7617 21.088C84.4617 21.64 84.3117 22.288 84.3117 23.032C84.3117 23.788 84.4617 24.448 84.7617 25.012C85.0617 25.564 85.4637 25.99 85.9677 26.29C86.4717 26.578 87.0297 26.722 87.6417 26.722C88.2537 26.722 88.8117 26.578 89.3157 26.29C89.8317 25.99 90.2397 25.564 90.5397 25.012C90.8397 24.448 90.9897 23.794 90.9897 23.05Z" fill="#413833"/>
</svg>
