<svg width="45" height="34" viewBox="0 0 45 34" fill="none" xmlns="http://www.w3.org/2000/svg">
<g id="Group 42">
<g id="Group">
<path id="Vector" d="M28.4262 9.31026C28.4262 13.9299 25.6822 17.6069 22.2346 17.6069C18.787 17.6069 16.043 13.9299 16.043 9.31026C16.043 4.69056 18.787 1.01367 22.2346 1.01367C25.6822 1.01367 28.4262 4.69056 28.4262 9.31026Z" fill="#413833"/>
<path id="Vector_2" d="M28.3552 18.4551H26.3852C25.2594 19.775 23.8522 20.6235 22.2339 20.6235C20.6157 20.6235 19.2085 19.775 18.0828 18.4551H16.1127C13.5094 18.4551 8.16211 23.0748 8.16211 26.2803V27.5059C8.16211 30.7114 10.2729 33.3512 12.9466 33.3512H31.451C34.0543 33.3512 36.2354 30.7114 36.2354 27.5059V26.2803C36.2354 23.0748 30.9585 18.4551 28.3552 18.4551Z" fill="#413833"/>
</g>
<g id="Group_2">
<path id="Vector_3" d="M40.3161 4.69052C40.3161 7.23607 38.7682 9.31018 36.8685 9.31018C34.9688 9.31018 33.4209 7.23607 33.4209 4.69052C33.4209 2.14497 34.9688 0.0708008 36.8685 0.0708008C38.7682 0.0708008 40.3161 2.14497 40.3161 4.69052Z" fill="#413833"/>
<path id="Vector_4" d="M40.2457 9.78174H39.1904C38.5571 10.536 37.7832 11.0074 36.8685 11.0074C35.9538 11.0074 35.1799 10.536 34.5466 9.78174H33.4209C31.9434 9.78174 28.9883 12.3273 28.9883 14.1186V14.7786C28.9883 15.4386 29.129 16.0042 29.4104 16.4756C30.3251 16.4756 31.6619 17.1356 32.858 18.0784H41.9343C43.4119 18.0784 44.608 16.6642 44.608 14.7786V14.1186C44.608 12.3273 41.7233 9.78174 40.2457 9.78174Z" fill="#413833"/>
</g>
<g id="Group_3">
<path id="Vector_5" d="M4.43262 4.69052C4.43262 7.23607 5.98054 9.31018 7.88023 9.31018C9.77993 9.31018 11.3278 7.23607 11.3278 4.69052C11.3278 2.14497 9.77993 0.0708008 7.88023 0.0708008C5.98054 0.0708008 4.43262 2.14497 4.43262 4.69052Z" fill="#413833"/>
<path id="Vector_6" d="M4.503 9.78174H5.55839C6.19162 10.536 6.96557 11.0074 7.88024 11.0074C8.79491 11.0074 9.56885 10.536 10.2021 9.78174H11.2575C12.735 9.78174 15.6197 12.3273 15.6197 14.1186V14.7786C15.6197 15.4386 15.479 16.0042 15.1976 16.4756C14.2829 16.4756 12.9461 17.1356 11.75 18.0784H2.67364C1.1961 18.0784 0 16.6642 0 14.7786V14.1186C0.140718 12.3273 3.09582 9.78174 4.503 9.78174Z" fill="#413833"/>
</g>
</g>
</svg>
