<svg width="36" height="45" viewBox="0 0 36 45" fill="none" xmlns="http://www.w3.org/2000/svg">
<path d="M24.6857 5.73047V12.4094H19.5428V5.73047H15.0428V12.4094H9.89998V5.73047H0V44.5897H36V5.73047H24.6857ZM10.6071 18.1342C12.6 18.1342 14.2071 20.3027 14.2071 22.9916C14.2071 25.6805 12.6 27.849 10.6071 27.849C8.61429 27.849 7.00712 25.6805 7.00712 22.9916C7.00712 20.3027 8.61429 18.1342 10.6071 18.1342ZM18.7071 33.5738C18.7071 35.4821 17.4857 36.9567 15.9428 36.9567H5.20713C3.66427 36.9567 2.44285 35.3954 2.44285 33.5738V32.8799C2.44285 30.9716 5.52855 28.3695 7.00712 28.3695H8.09998C8.74284 29.1501 9.57856 29.6706 10.4786 29.6706C11.3786 29.6706 12.2786 29.2369 12.8571 28.3695H13.95C15.4928 28.3695 18.5143 31.0584 18.5143 32.8799L18.7071 33.5738ZM34.1357 36.9567H21.9857V33.3136H34.1357V36.9567ZM34.1357 30.8849H21.9857V27.2418H34.1357V30.8849ZM34.1357 24.8131H21.9857V21.1701H34.1357V24.8131ZM34.1357 18.7414H21.9857V15.0983H34.1357V18.7414Z" fill="#413833"/>
<path d="M14 0.370605H11V9.75043H14V0.370605Z" fill="#413833"/>
<path d="M24 0.370605H21V9.75043H24V0.370605Z" fill="#413833"/>
</svg>
